# xmcd CD database file
#
# Track frame offsets:
#	150
#	25098
#	48196
#	68413
#	88719
#	115470
#	136664
#	153428
#	171399
#	193403
#	215369
#
# Disc length: 3165 seconds
#
# Revision: 0
# Processed by: cddbd v1.5.2PL0 Copyright (c) Steve Scherf et al.
# Submitted via: CDex 1.70beta2
#
DISCID=930c5b0b
DTITLE=Bradley Leighton - Back To The Funk
DYEAR=2005
DGENRE=Jazz
TTITLE0=Runaway
TTITLE1=Flow
TTITLE2=Back To The Funk
TTITLE3=Midnight Affairs
TTITLE4=Clear Blue Skies
TTITLE5=Special Lady
TTITLE6=Sunday In San Diego
TTITLE7=Make It With You
TTITLE8=Ready For You
TTITLE9=Soul Moon
TTITLE10=Love Light In Flight
EXTD=YEAR: 2005
EXTT0=
EXTT1=
EXTT2=
EXTT3=
EXTT4=
EXTT5=
EXTT6=
EXTT7=
EXTT8=
EXTT9=
EXTT10=
PLAYORDER=
